<?xml version="1.0" standalone="no"?>
<!DOCTYPE svg PUBLIC "-//W3C//DTD SVG 20010904//EN"
 "http://www.w3.org/TR/2001/REC-SVG-20010904/DTD/svg10.dtd">
<svg version="1.0" xmlns="http://www.w3.org/2000/svg"
 width="16.000000pt" height="16.000000pt" viewBox="0 0 16.000000 16.000000"
 preserveAspectRatio="xMidYMid meet">
<metadata>
Created by potrace 1.11, written by Peter Selinger 2001-2013
</metadata>
<g transform="translate(0.000000,16.000000) scale(0.006154,-0.006154)"
fill="#000000" stroke="none">
<path d="M747 1787 c-54 -105 -140 -273 -190 -372 -51 -99 -164 -318 -250
-486 l-157 -306 1151 0 1151 0 -6 41 c-3 23 -8 68 -11 101 -4 33 -8 71 -10 85
-2 14 -7 54 -10 90 -3 36 -8 76 -10 90 -2 14 -6 50 -10 80 -3 30 -8 71 -10 90
-2 19 -9 80 -15 135 -6 55 -13 111 -15 125 -2 14 -7 54 -10 90 -4 36 -9 72
-10 81 -2 8 -6 49 -10 90 -3 41 -8 81 -10 89 -2 8 -7 46 -10 85 -4 38 -9 73
-11 77 -3 5 -330 8 -727 8 l-722 0 -98 -193z m1417 42 c2 -2 7 -38 10 -79 4
-41 11 -106 16 -145 5 -38 12 -90 15 -115 2 -25 7 -65 10 -90 3 -25 7 -67 11
-95 8 -77 14 -121 19 -162 3 -21 7 -60 10 -88 3 -27 7 -66 10 -85 2 -19 7 -60
10 -90 4 -30 8 -67 11 -82 l4 -28 -954 0 -955 0 48 93 c26 50 110 214 186 362
76 149 177 345 224 437 47 92 92 169 100 170 23 5 1221 2 1225 -3z"/>
</g>
</svg>
